# xmcd
#
# Track frame offsets:
#	150
#	23439
#	46370
#	69607
#	90519
#	113771
#	133078
#	153572
#
# Disc length: 2341 seconds
#
# Revision: 1
# Processed by: cddbd v1.5.1PL0 Copyright (c) Steve Scherf et al.
# Submitted via: EasyCDDAExtractor 7.0.5.1
#
DISCID=60092308
DTITLE=Various Artist - The Principal 2
DYEAR=2001
DGENRE=Bhangra
TTITLE0=Harbhajan Mann - Lala Lala Lala
TTITLE1=Surjit Bindrakhia - Boliyan
TTITLE2=Sardool Sikander - Ek Kudi Dil Dil Utte
TTITLE3=Hans Raj Hans - Dil Chori Sada Ho Gaya
TTITLE4=Harbhajan Mann - Teri Bhij Gaye Kurti
TTITLE5=Amar Noorie - Chaudvin Da Chand
TTITLE6=Hans Raj Hans - Balle Balle
TTITLE7=Surjit Bindrakhia - Wang Ho Gai Tang
EXTD=
EXTT0=
EXTT1=
EXTT2=
EXTT3=
EXTT4=
EXTT5=
EXTT6=
EXTT7=
PLAYORDER=
